# xmcd
#
# Track frame offsets:
#	150
#	17358
#	31934
#	49592
#	64600
#	75631
#	86471
#	101040
#	116293
#	130715
#	145780
#	158119
#	172630
#	190137
#	209463
#	222322
#	234652
#
# Disc length: 3329 seconds
#
# Revision: 1
# Processed by: cddbd v1.5.2PL0 Copyright (c) Steve Scherf et al.
# Submitted via: audiograbber 1.83.01
#
DISCID=d10cff11
DTITLE=Various (Blues) - He sings the Blues CD 2 
DYEAR=1900
DGENRE=Blues
TTITLE0=The very thought of you - Nat King Cole
TTITLE1=The way you look tonight - Sammy Davis jr.
TTITLE2=Stormy weather - Billy Eckstine
TTITLE3=I fall in love too easily - Chet Baker
TTITLE4=I got the world on a string - Lousi Prima
TTITLE5=I wish you love - Dean Martin
TTITLE6=We have all the time in the world - Louis Armstrong
TTITLE7=Softly as I leave you - Matt Monro
TTITLE8=Blue Moon - Mel Torme
TTITLE9=Georgia on my mind - Lou Rawls
TTITLE10=By the time I get to Phoenix - Glen Campbell
TTITLE11=If not you - Dr. Hook
TTITLE12=Lady - Kenny Rogers
TTITLE13=And I love you so - Don McLean
TTITLE14=Crazy - Willie Nelson
TTITLE15=The Party's over - Nat King Cole
TTITLE16=Sunrise - Norah Jones
EXTD=
EXTT0=
EXTT1=
EXTT2=
EXTT3=
EXTT4=
EXTT5=
EXTT6=
EXTT7=
EXTT8=
EXTT9=
EXTT10=
EXTT11=
EXTT12=
EXTT13=
EXTT14=
EXTT15=
EXTT16=
PLAYORDER=
